# xmcd
#
# Track frame offsets:
#	150
#	12430
#	34107
#	51808
#	71322
#	86936
#	106181
#	122735
#	139598
#	154065
#
# Disc length: 2232 seconds
#
# Revision: 1
# Processed by: cddbd v1.5.2PL0 Copyright (c) Steve Scherf et al.
# Submitted via: EasyCDDAExtractor 12.0.4.1
#
DISCID=7e08b60a
DTITLE=Various Artist - One  Man  Story
DYEAR=1900
DGENRE=Pop
TTITLE0=สุรพันธุ์ จำลองกุล/Bed Time
TTITLE1=เป๊ก ผลิตโชค อายนบุตร/ไม่มีใครรู้
TTITLE2=เป๊ก ผลิตโชค อายนบุตร/ติดใจ
TTITLE3=กานต์(HUM)/รับรู้
TTITLE4=สุรพันธุ์ จำลองกุล/คนเคยรัก
TTITLE5=สุรพันธุ์ จำลองกุล/ชีวิตใหม่
TTITLE6=อี๊ด สำราญ/หยดน้ำกับกองไฟ
TTITLE7=ต่อ สหภาพ/เหนื่อย
TTITLE8=รวมศิลปิน/เวลา
TTITLE9=สุรพันธุ์ จำลองกุล/สำนึก..ดี
EXTD=
EXTT0=
EXTT1=
EXTT2=
EXTT3=
EXTT4=
EXTT5=
EXTT6=
EXTT7=
EXTT8=
EXTT9=
PLAYORDER=
